<?xml version="1.0" encoding="UTF-8" standalone="no"?>
<!-- Generator: Adobe Illustrator 17.1.0, SVG Export Plug-In . SVG Version: 6.00 Build 0)  -->

<svg
   xmlns:dc="http://purl.org/dc/elements/1.1/"
   xmlns:cc="http://creativecommons.org/ns#"
   xmlns:rdf="http://www.w3.org/1999/02/22-rdf-syntax-ns#"
   xmlns:svg="http://www.w3.org/2000/svg"
   xmlns="http://www.w3.org/2000/svg"
   xmlns:sodipodi="http://sodipodi.sourceforge.net/DTD/sodipodi-0.dtd"
   xmlns:inkscape="http://www.inkscape.org/namespaces/inkscape"
   version="1.1"
   id="Layer_1"
   x="0px"
   y="0px"
   width="1000px"
   height="1000px"
   viewBox="0 0 1000 1000"
   enable-background="new 0 0 1000 1000"
   xml:space="preserve"
   inkscape:version="0.48.4 r9939"
   sodipodi:docname="camera75.svg"><metadata
     id="metadata19"><rdf:RDF><cc:Work
         rdf:about=""><dc:format>image/svg+xml</dc:format><dc:type
           rdf:resource="http://purl.org/dc/dcmitype/StillImage" /></cc:Work></rdf:RDF></metadata><defs
     id="defs17" /><sodipodi:namedview
     pagecolor="#ffffff"
     bordercolor="#666666"
     borderopacity="1"
     objecttolerance="10"
     gridtolerance="10"
     guidetolerance="10"
     inkscape:pageopacity="0"
     inkscape:pageshadow="2"
     inkscape:window-width="1366"
     inkscape:window-height="711"
     id="namedview15"
     showgrid="false"
     inkscape:zoom="0.236"
     inkscape:cx="-235.16949"
     inkscape:cy="500"
     inkscape:window-x="-4"
     inkscape:window-y="0"
     inkscape:window-maximized="1"
     inkscape:current-layer="Layer_1" /><path
     d="M53.884,648.834H311.08c7.512,0,12.206-8.133,8.449-14.638L104.03,261.096c-3.762-6.514-13.142-6.484-16.915,0.024  C46.386,331.364,23.065,412.958,23.065,500c0,49.441,7.529,97.122,21.493,141.966C45.829,646.05,49.607,648.834,53.884,648.834z"
     id="path3"
     style="fill:#00b8cc;fill-opacity:0.94117647" /><path
     d="M500.169,23.065c-0.056,0-0.113,0-0.169,0c-138.499,0-263.205,59.041-350.335,153.32c-2.906,3.144-3.433,7.812-1.292,11.52  L276.85,410.434c3.757,6.508,13.151,6.504,16.904-0.007l214.81-372.733C512.298,31.213,507.65,23.067,500.169,23.065z"
     id="path5"
     style="fill:#00b8cc;fill-opacity:0.94117647" /><path
     d="M946.221,351.5H689.116c-7.513,0-12.207,8.134-8.449,14.638l215.336,372.71c3.763,6.514,13.143,6.482,16.915-0.026  c40.708-70.231,64.017-151.804,64.017-238.822c0-49.316-7.49-96.881-21.386-141.626C954.281,354.288,950.5,351.5,946.221,351.5z"
     id="path7"
     style="fill:#00b8cc;fill-opacity:0.94117647" /><path
     d="M913.338,261.905C847.731,148.255,736.599,64.193,604.86,34.637c-4.177-0.937-8.483,0.933-10.623,4.64L465.663,261.972  c-3.756,6.506,0.94,14.638,8.453,14.636l430.749-0.104C912.354,276.502,917.083,268.392,913.338,261.905z"
     id="path9"
     style="fill:#00b8cc;fill-opacity:0.94117647" /><path
     d="M525.333,723.404l-430.018,0.414c-7.49,0.007-12.212,8.121-8.462,14.605c65.551,113.345,176.403,197.205,307.803,226.83  c4.179,0.942,8.49-0.928,10.632-4.638L533.792,738.04C537.55,731.532,532.849,723.397,525.333,723.404z"
     id="path11"
     style="fill:#00b8cc;fill-opacity:0.94117647" /><path
     d="M723.175,589.489c-3.755-6.504-13.142-6.505-16.899-0.002L490.926,962.294c-3.744,6.482,0.902,14.63,8.387,14.641  c0.229,0,0.458,0,0.687,0c138.522,0,263.245-59.06,350.378-153.367c2.905-3.144,3.432-7.812,1.292-11.519L723.175,589.489z"
     id="path13"
     style="fill:#00b8cc;fill-opacity:0.94117647" /></svg>